<?xml version="1.0" standalone="no"?>
<!DOCTYPE svg PUBLIC "-//W3C//DTD SVG 1.1//EN" "http://www.w3.org/Graphics/SVG/1.1/DTD/svg11.dtd" >
<svg>
<metadata>
Created by FontForge 20120731 at Tue Oct  8 13:24:53 2019
 By www-data
Typeface (c)NALGames. 2013. All Rights Reserved
</metadata>
<defs>
<font id="VerminVibes2Black" horiz-adv-x="1500" >
  <font-face 
    font-family="Vermin Vibes 2 Black"
    font-weight="400"
    font-stretch="normal"
    units-per-em="2048"
    panose-1="2 0 5 0 0 0 0 0 0 0"
    ascent="1638"
    descent="-410"
    x-height="1400"
    cap-height="1400"
    bbox="-300 -300 2000 1800"
    underline-thickness="150"
    underline-position="-292"
    unicode-range="U+001D-F002"
  />
<missing-glyph horiz-adv-x="1700" 
d="M0 0l208 1700l897 -1000l86 700h408l-208 -1700l-897 1000l-86 -700h-408z" />
    <glyph glyph-name=".notdef" horiz-adv-x="1700" 
d="M0 0l208 1700l897 -1000l86 700h408l-208 -1700l-897 1000l-86 -700h-408z" />
    <glyph glyph-name=".null" horiz-adv-x="0" 
 />
    <glyph glyph-name=".null" horiz-adv-x="0" 
 />
    <glyph glyph-name="nonmarkingreturn" horiz-adv-x="508" 
 />
    <glyph glyph-name="space" unicode=" " horiz-adv-x="508" 
 />
    <glyph glyph-name="space" unicode="&#xa0;" horiz-adv-x="508" 
 />
    <glyph glyph-name="exclam" unicode="!" horiz-adv-x="500" 
d="M400 1400v-900h-400v900h400zM400 400v-400h-400v400h400z" />
    <glyph glyph-name="quotedbl" unicode="&#x22;" horiz-adv-x="1000" 
d="M0 1400h400v-200q0 -400 -200 -400t-200 400v200zM500 1400h400v-200q0 -400 -200 -400t-200 400v200z" />
    <glyph glyph-name="numbersign" unicode="#" 
d="M0 1200h200v200h400v-200h200v200h400v-200h200v-400h-200v-200h200v-400h-200v-200h-400v200h-200v-200h-400v200h-200v400h200v200h-200v400zM600 800v-200h200v200h-200z" />
    <glyph glyph-name="dollar" unicode="$" 
d="M1400 1000v400h-900q-500 0 -500 -500q0 -400 500 -400h400q100 0 100 -54q0 -46 -100 -46h-900v-400h900q500 0 500 500q0 400 -400 400h-500q-100 0 -100 49q0 51 100 51h900zM500 1600v-1800h400v1800h-400z" />
    <glyph glyph-name="percent" unicode="%" 
d="M0 0l900 1400h500l-900 -1400h-500zM400 1400v-400h-400v400h400zM1000 0v400h400v-400h-400z" />
    <glyph glyph-name="ampersand" unicode="&#x26;" 
d="M500 1400q-500 0 -500 -500q0 -200 200 -200q-200 0 -200 -200q0 -500 500 -500h900v400h-200v100h200v400h-200v200h-400v-200h-300q-100 0 -100 49q0 51 100 51h200v400h-200zM800 500v-100h-300q-100 0 -100 46q0 54 100 54h300z" />
    <glyph glyph-name="quotesingle" unicode="'" horiz-adv-x="500" 
d="M0 1400h400v-200q0 -400 -200 -400t-200 400v200z" />
    <glyph glyph-name="parenleft" unicode="(" horiz-adv-x="700" 
d="M600 1400h-100q-500 0 -500 -500v-400q0 -500 500 -500h100v400h-100q-100 0 -100 100v400q0 100 100 100h100v400z" />
    <glyph glyph-name="parenright" unicode=")" horiz-adv-x="700" 
d="M0 1000h100q100 0 100 -100v-400q0 -100 -100 -100h-100v-400h100q500 0 500 500v400q0 500 -500 500h-100v-400z" />
    <glyph glyph-name="asterisk" unicode="*" horiz-adv-x="1499" 
d="M905 1400v-1400h-400v1400h400zM199 1223l1212 -700l-200 -346l-1212 700zM-1 523l1212 700l200 -346l-1212 -700z" />
    <glyph glyph-name="plus" unicode="+" horiz-adv-x="1300" 
d="M0 500v400h1200v-400h-1200zM800 100h-400v1200h400v-1200z" />
    <glyph glyph-name="comma" unicode="," horiz-adv-x="500" 
d="M0 400h400v-200q0 -400 -400 -400v600z" />
    <glyph glyph-name="hyphen" unicode="-" horiz-adv-x="1300" 
d="M0 500v400h1200v-400h-1200z" />
    <glyph glyph-name="hyphen" unicode="&#xad;" horiz-adv-x="1300" 
d="M0 500v400h1200v-400h-1200z" />
    <glyph glyph-name="period" unicode="." horiz-adv-x="500" 
d="M0 0v400h400v-400h-400z" />
    <glyph glyph-name="slash" unicode="/" 
d="M0 0l900 1400h500l-900 -1400h-500z" />
    <glyph glyph-name="zero" unicode="0" 
d="M700 400q300 0 300 300t-300 300t-300 -300t300 -300zM0 700q0 700 700 700t700 -700t-700 -700t-700 700z" />
    <glyph glyph-name="one" unicode="1" horiz-adv-x="700" 
d="M0 1400v-400h100q100 0 100 -100v-900h400v900q0 500 -500 500h-100z" />
    <glyph glyph-name="two" unicode="2" 
d="M900 1000q100 0 100 -51q0 -49 -100 -49h-500q-400 0 -400 -400v-500h1400v400h-1000v46q0 54 100 54h400q500 0 500 400q0 500 -500 500h-900v-400h900z" />
    <glyph glyph-name="three" unicode="3" 
d="M0 1400h900q500 0 500 -500q0 -200 -200 -200q200 0 200 -200q0 -500 -500 -500h-900v400h900q100 0 100 55q0 45 -100 45h-900v400h900q100 0 100 49q0 51 -100 51h-900v400z" />
    <glyph glyph-name="four" unicode="4" 
d="M0 1400v-400q0 -500 500 -500h500v-500h400v1400h-400v-500h-500q-100 0 -100 100v400h-400z" />
    <glyph glyph-name="five" unicode="5" 
d="M1400 1000v400h-1400v-900h900q100 0 100 -54q0 -46 -100 -46h-900v-400h900q500 0 500 500q0 400 -400 400h-600v100h1000z" />
    <glyph glyph-name="six" unicode="6" 
d="M500 0q-500 0 -500 500v400q0 500 500 500h400q500 0 500 -451h-400q0 51 -100 51h-400q-100 0 -100 -100h500q500 0 500 -400q0 -500 -500 -500h-400zM400 500q0 -100 100 -100h400q100 0 100 60q0 40 -100 40h-500z" />
    <glyph glyph-name="seven" unicode="7" 
d="M0 1400h1400l-900 -1400h-500l648 1000h-648v400z" />
    <glyph glyph-name="eight" unicode="8" 
d="M900 900q100 0 100 45q0 55 -100 55h-400q-100 0 -100 -53q0 -47 100 -47h400zM900 400q100 0 100 47q0 53 -100 53h-400q-100 0 -100 -48q0 -52 100 -52h400zM500 1400h400q500 0 500 -500q0 -200 -200 -200q200 0 200 -200q0 -500 -500 -500h-400q-500 0 -500 500
q0 200 200 200q-200 0 -200 200q0 500 500 500z" />
    <glyph glyph-name="nine" unicode="9" 
d="M900 1400q500 0 500 -500v-400q0 -500 -500 -500h-400q-500 0 -500 451h400q0 -51 100 -51h400q100 0 100 100h-500q-500 0 -500 400q0 500 500 500h400zM1000 900q0 100 -100 100h-400q-100 0 -100 -60q0 -40 100 -40h500z" />
    <glyph glyph-name="colon" unicode=":" horiz-adv-x="500" 
d="M0 800v400h400v-400h-400zM0 200v400h400v-400h-400z" />
    <glyph glyph-name="semicolon" unicode=";" horiz-adv-x="500" 
d="M0 800v400h400v-400h-400zM0 600h400v-200q0 -400 -400 -400v600z" />
    <glyph glyph-name="semicolon" unicode="&#x37e;" horiz-adv-x="500" 
d="M0 800v400h400v-400h-400zM0 600h400v-200q0 -400 -400 -400v600z" />
    <glyph glyph-name="less" unicode="&#x3c;" horiz-adv-x="800" 
d="M0 700l700 700v-600l-100 -100l100 -100v-600z" />
    <glyph glyph-name="equal" unicode="=" horiz-adv-x="1300" 
d="M0 800v400h1200v-400h-1200zM0 200v400h1200v-400h-1200z" />
    <glyph glyph-name="greater" unicode="&#x3e;" horiz-adv-x="800" 
d="M0 0v600l100 100l-100 100v600l700 -700z" />
    <glyph glyph-name="question" unicode="?" 
d="M0 1400h900q500 0 500 -500q0 -400 -400 -400h-700v400h600q100 0 100 53q0 47 -100 47h-900v400zM300 400v-400h400v400h-400z" />
    <glyph glyph-name="at" unicode="@" horiz-adv-x="1300" 
d="M600 100q-600 0 -600 600t600 600t600 -600q0 -300 -500 -300v51q-40 -51 -100 -51q-300 0 -300 300t300 300q100 0 100 -56v56h200v-359q100 4 100 59q0 400 -400 400t-400 -400t400 -400h400v-200h-400zM600 600q100 0 100 100t-100 100t-100 -100t100 -100z" />
    <glyph glyph-name="A" unicode="A" 
d="M0 0v700q0 700 700 700t700 -700v-700h-400v300h-600v-300h-400zM1000 700q0 300 -300 300t-300 -300h600z" />
    <glyph glyph-name="B" unicode="B" 
d="M0 0v1400h900q500 0 500 -500q0 -200 -200 -200q200 0 200 -200q0 -500 -500 -500h-900zM900 900q100 0 100 50t-100 50h-500v-100h500zM900 400q100 0 100 50t-100 50h-500v-100h500z" />
    <glyph glyph-name="C" unicode="C" 
d="M0 700q0 700 700 700t700 -644h-400q0 244 -300 244t-300 -300t300 -300t300 248h400q0 -648 -700 -648t-700 700z" />
    <glyph glyph-name="D" unicode="D" 
d="M700 1000q300 0 300 -300t-300 -300h-300v600h300zM0 1400v-1400h700q700 0 700 700t-700 700h-700z" />
    <glyph glyph-name="E" unicode="E" 
d="M0 1400h1400v-400h-1400v400zM0 0v400h1400v-400h-1400zM0 900h1400v-400h-1400v400z" />
    <glyph glyph-name="F" unicode="F" 
d="M0 1400h1400v-400h-1000v-100h1000v-400h-1000v-500h-400v1400z" />
    <glyph glyph-name="G" unicode="G" 
d="M700 0q-700 0 -700 700t700 700h700v-400h-700q-300 0 -300 -300t300 -300h300v100h-300v400h700v-900h-700z" />
    <glyph glyph-name="H" unicode="H" 
d="M0 1400v-1400h400v500h600v-500h400v1400h-400v-500h-600v500h-400z" />
    <glyph glyph-name="I" unicode="I" horiz-adv-x="500" 
d="M0 1400v-1400h400v1400h-400z" />
    <glyph glyph-name="J" unicode="J" 
d="M1000 1400h400v-700q0 -700 -700 -700t-700 700h400q0 -300 300 -300t300 300v700z" />
    <glyph glyph-name="K" unicode="K" 
d="M400 1400h-400v-1400h400v400l400 -400h600l-700 700l700 700h-600l-400 -400v400z" />
    <glyph glyph-name="L" unicode="L" 
d="M0 1400h400v-1000h1000v-400h-1400v1400z" />
    <glyph glyph-name="M" unicode="M" 
d="M0 0v1400l700 -700l700 700v-1400h-400v400l-300 -300l-300 300v-400h-400z" />
    <glyph glyph-name="N" unicode="N" 
d="M0 0v1700l1000 -1000v700h400v-1700l-1000 1000v-700h-400z" />
    <glyph glyph-name="O" unicode="O" 
d="M700 400q300 0 300 300t-300 300t-300 -300t300 -300zM0 700q0 700 700 700t700 -700t-700 -700t-700 700z" />
    <glyph glyph-name="P" unicode="P" 
d="M400 0h-400v1400h900q500 0 500 -500q0 -400 -500 -400h-500v-500zM900 900q100 0 100 50t-100 50h-500v-100h500z" />
    <glyph glyph-name="Q" unicode="Q" 
d="M700 400l-400 400h600l100 -100q0 300 -300 300t-300 -300t300 -300zM1043 57q-143 -57 -343 -57q-700 0 -700 700t700 700t700 -700q0 -200 -57 -343l657 -657h-600z" />
    <glyph glyph-name="R" unicode="R" 
d="M400 1000v-100h500q100 0 100 49q0 51 -100 51h-500zM600 500h-200v-500h-400v1400h900q500 0 500 -500q0 -276 -238 -362l838 -838h-600z" />
    <glyph glyph-name="S" unicode="S" 
d="M1400 1000v400h-900q-500 0 -500 -500q0 -400 500 -400h400q100 0 100 -54q0 -46 -100 -46h-900v-400h900q500 0 500 500q0 400 -400 400h-500q-100 0 -100 49q0 51 100 51h900z" />
    <glyph glyph-name="T" unicode="T" 
d="M0 1400h1400v-400h-500v-1000h-400v1000h-500v400z" />
    <glyph glyph-name="U" unicode="U" horiz-adv-x="1501" 
d="M0 1400v-700q0 -700 700 -700t700 700v700h-400v-700q0 -300 -300 -300t-300 300v700h-400z" />
    <glyph glyph-name="V" unicode="V" 
d="M0 1400l1400 -1400v1400h-400v-400l-400 400h-600z" />
    <glyph glyph-name="W" unicode="W" horiz-adv-x="1900" 
d="M0 1400h600l400 -400v400l400 -400v400h400v-1400l-400 400v-400z" />
    <glyph glyph-name="X" unicode="X" 
d="M1400 300v-600l-700 700l-400 -400h-600l700 700l-400 400v600l700 -700l400 400h600l-700 -700z" />
    <glyph glyph-name="Y" unicode="Y" 
d="M0 1400l700 -700l700 700v-600l-500 -500v-300h-400v300l-500 500v600z" />
    <glyph glyph-name="Z" unicode="Z" 
d="M0 1400v-400h600l-600 -1000h1400v400h-600l600 1000h-1400z" />
    <glyph glyph-name="bracketleft" unicode="[" horiz-adv-x="700" 
d="M0 1400v-1400h600v400h-200v600h200v400h-600z" />
    <glyph glyph-name="backslash" unicode="\" 
d="M900 0l-900 1400h500l900 -1400h-500z" />
    <glyph glyph-name="bracketright" unicode="]" horiz-adv-x="700" 
d="M0 1400v-400h200v-600h-200v-400h600v1400h-600z" />
    <glyph glyph-name="asciicircum" unicode="^" horiz-adv-x="900" 
d="M400 1400l-400 -500h300l100 120l100 -120h300z" />
    <glyph glyph-name="underscore" unicode="_" 
d="M0 0v400h1400v-400h-1400z" />
    <glyph glyph-name="grave" unicode="`" horiz-adv-x="500" 
d="M400 1400h-400v-200q0 -400 400 -400v600z" />
    <glyph glyph-name="a" unicode="a" 
d="M0 0v700q0 700 700 700t700 -700v-700h-400v300h-600v-300h-400zM1000 700q0 300 -300 300t-300 -300h600z" />
    <glyph glyph-name="b" unicode="b" 
d="M0 0v1400h900q500 0 500 -500q0 -200 -200 -200q200 0 200 -200q0 -500 -500 -500h-900zM900 900q100 0 100 50t-100 50h-500v-100h500zM900 400q100 0 100 50t-100 50h-500v-100h500z" />
    <glyph glyph-name="c" unicode="c" 
d="M0 700q0 700 700 700t700 -644h-400q0 244 -300 244t-300 -300t300 -300t300 248h400q0 -648 -700 -648t-700 700z" />
    <glyph glyph-name="d" unicode="d" 
d="M700 1000q300 0 300 -300t-300 -300h-300v600h300zM0 1400v-1400h700q700 0 700 700t-700 700h-700z" />
    <glyph glyph-name="e" unicode="e" 
d="M0 1400h1400v-400h-1400v400zM0 0v400h1400v-400h-1400zM0 900h1400v-400h-1400v400z" />
    <glyph glyph-name="f" unicode="f" 
d="M0 1400h1400v-400h-1000v-100h1000v-400h-1000v-500h-400v1400z" />
    <glyph glyph-name="g" unicode="g" 
d="M700 0q-700 0 -700 700t700 700h700v-400h-700q-300 0 -300 -300t300 -300h300v100h-300v400h700v-900h-700z" />
    <glyph glyph-name="h" unicode="h" 
d="M0 1400v-1400h400v500h600v-500h400v1400h-400v-500h-600v500h-400z" />
    <glyph glyph-name="i" unicode="i" horiz-adv-x="500" 
d="M0 1400v-1400h400v1400h-400z" />
    <glyph glyph-name="j" unicode="j" 
d="M1000 1400h400v-700q0 -700 -700 -700t-700 700h400q0 -300 300 -300t300 300v700z" />
    <glyph glyph-name="k" unicode="k" 
d="M400 1400h-400v-1400h400v400l400 -400h600l-700 700l700 700h-600l-400 -400v400z" />
    <glyph glyph-name="l" unicode="l" 
d="M0 1400h400v-1000h1000v-400h-1400v1400z" />
    <glyph glyph-name="m" unicode="m" 
d="M0 0v1400l700 -700l700 700v-1400h-400v400l-300 -300l-300 300v-400h-400z" />
    <glyph glyph-name="n" unicode="n" 
d="M0 0v1700l1000 -1000v700h400v-1700l-1000 1000v-700h-400z" />
    <glyph glyph-name="o" unicode="o" 
d="M700 400q300 0 300 300t-300 300t-300 -300t300 -300zM0 700q0 700 700 700t700 -700t-700 -700t-700 700z" />
    <glyph glyph-name="p" unicode="p" 
d="M400 0h-400v1400h900q500 0 500 -500q0 -400 -500 -400h-500v-500zM900 900q100 0 100 50t-100 50h-500v-100h500z" />
    <glyph glyph-name="q" unicode="q" 
d="M700 400l-400 400h600l100 -100q0 300 -300 300t-300 -300t300 -300zM1043 57q-143 -57 -343 -57q-700 0 -700 700t700 700t700 -700q0 -200 -57 -343l357 -357h-600z" />
    <glyph glyph-name="r" unicode="r" 
d="M400 1000v-100h500q100 0 100 49q0 51 -100 51h-500zM650 500h-250v-500h-400v1400h900q500 0 500 -500q0 -276 -300 -362l300 -538h-468z" />
    <glyph glyph-name="s" unicode="s" 
d="M1400 1000v400h-900q-500 0 -500 -500q0 -400 500 -400h400q100 0 100 -54q0 -46 -100 -46h-900v-400h900q500 0 500 500q0 400 -400 400h-500q-100 0 -100 49q0 51 100 51h900z" />
    <glyph glyph-name="t" unicode="t" 
d="M0 1400h1400v-400h-500v-1000h-400v1000h-500v400z" />
    <glyph glyph-name="u" unicode="u" horiz-adv-x="1501" 
d="M0 1400v-700q0 -700 700 -700t700 700v700h-400v-700q0 -300 -300 -300t-300 300v700h-400z" />
    <glyph glyph-name="v" unicode="v" 
d="M0 1400l1400 -1400v1400h-400v-400l-400 400h-600z" />
    <glyph glyph-name="w" unicode="w" 
d="M400 1400v-400l300 300l300 -300v400h400v-1400l-700 700l-700 -700v1400h400z" />
    <glyph glyph-name="x" unicode="x" 
d="M1400 300v-600l-700 700l-400 -400h-600l700 700l-400 400v600l700 -700l400 400h600l-700 -700z" />
    <glyph glyph-name="y" unicode="y" 
d="M0 1400l700 -700l700 700v-600l-500 -500v-300h-400v300l-500 500v600z" />
    <glyph glyph-name="z" unicode="z" 
d="M0 1400v-400h600l-600 -1000h1400v400h-600l600 1000h-1400z" />
    <glyph glyph-name="braceleft" unicode="{" horiz-adv-x="900" 
d="M0 500v400h200q0 500 500 500h100v-400h-100q-100 0 -100 -100v-400q0 -100 100 -100h100v-400h-100q-500 0 -500 500h-200z" />
    <glyph glyph-name="bar" unicode="|" horiz-adv-x="500" 
d="M0 1600h400v-1800h-400v1800z" />
    <glyph glyph-name="braceright" unicode="}" horiz-adv-x="900" 
d="M600 500q0 -500 -500 -500h-100v400h100q100 0 100 100v400q0 100 -100 100h-100v400h100q500 0 500 -500h200v-400h-200z" />
    <glyph glyph-name="asciitilde" unicode="~" 
d="M0 400v200q0 400 400 400t400 -151q0 -49 100 -49t100 100v100h400v-200q0 -400 -400 -400t-400 139q0 61 -100 61t-100 -100v-100h-400z" />
    <glyph glyph-name="exclamdown" unicode="&#xa1;" horiz-adv-x="500" 
d="M0 0v900h400v-900h-400zM0 1000v400h400v-400h-400z" />
    <glyph glyph-name="cent" unicode="&#xa2;" 
d="M0 700q0 700 700 700t700 -644h-400q0 244 -300 244t-300 -300t300 -300t300 248h400q0 -648 -700 -648t-700 700zM900 1600v-1800h-400v1800h400z" />
    <glyph glyph-name="sterling" unicode="&#xa3;" 
d="M0 0v400h200v100h-200v400h200q0 500 500 500h700v-400h-700q-100 0 -100 -100h600v-400h-600v-100h800v-400h-1400z" />
    <glyph glyph-name="currency" unicode="&#xa4;" 
d="M200 700q0 500 500 500t500 -500t-500 -500t-500 500zM700 600q100 0 100 100t-100 100t-100 -100t100 -100zM0 1100l300 300l300 -300l-300 -300zM800 1100l300 300l300 -300l-300 -300zM0 300l300 300l300 -300l-300 -300zM800 300l300 300l300 -300l-300 -300z" />
    <glyph glyph-name="yen" unicode="&#xa5;" 
d="M0 1400h600l100 -100l100 100h600l-500 -500h400v-400h-400v-58h400v-390h-400v-52h-400v52h-400v399h400v49h-400v400h400z" />
    <glyph glyph-name="brokenbar" unicode="&#xa6;" horiz-adv-x="500" 
d="M300 1500v-700h-300v700h300zM300 600v-700h-300v700h300z" />
    <glyph glyph-name="section" unicode="&#xa7;" 
d="M1400 1600h-1100q-300 0 -300 -300v-600q0 -300 300 -300h800q0 -100 -100 -100h-1000v-300h1100q300 0 300 300v600q0 300 -300 300h-800q0 100 100 100h1000v300zM1100 900v-200h-800v200h800z" />
    <glyph glyph-name="dieresis" unicode="&#xa8;" horiz-adv-x="800" 
d="M0 1500v300h300v-300h-300zM400 1500v300h300v-300h-300z" />
    <glyph glyph-name="copyright" unicode="&#xa9;" 
d="M400 700q0 300 300 300t300 -250h-200q0 50 -100 50t-100 -100t100 -100t100 50h200q0 -250 -300 -250t-300 300zM700 200q500 0 500 500t-500 500t-500 -500t500 -500zM0 700q0 700 700 700t700 -700t-700 -700t-700 700z" />
    <glyph glyph-name="ordfeminine" unicode="&#xaa;" horiz-adv-x="700" 
d="M0 1200q0 200 300 200t300 -200v-500h-200v100q0 -100 -200 -100t-200 200t200 200h200v100q0 59 -100 59t-100 -59h-200zM400 980h-98q-98 0 -98 -69q0 -70 98 -70t98 70v69z" />
    <glyph glyph-name="guillemotleft" unicode="&#xab;" horiz-adv-x="1353" 
d="M0 700l700 700v-400l-300 -300l300 -300v-400zM554 700l700 700v-400l-300 -300l300 -300v-400z" />
    <glyph glyph-name="logicalnot" unicode="&#xac;" 
d="M0 1100v-400h1000v-400h400v800h-1400z" />
    <glyph glyph-name="registered" unicode="&#xae;" 
d="M700 200q500 0 500 500t-500 500t-500 -500t500 -500zM0 700q0 700 700 700t700 -700t-700 -700t-700 700zM600 400h-200v600h352q248 0 248 -244q0 -156 -119 -204l119 -152h-248l-92 136l-60 1v-137zM600 821v-72h136q43 1 43 33q1 35 -45 39h-134z" />
    <glyph glyph-name="macron" unicode="&#xaf;" 
d="M1400 1400v-400h-1400v400h1400z" />
    <glyph glyph-name="degree" unicode="&#xb0;" horiz-adv-x="900" 
d="M683 1283q117 -117 117 -283t-117 -283t-283 -117t-283 117t-117 283t117 283t283 117t283 -117zM400 800q83 0 141.5 58.5t58.5 141.5t-58.5 141.5t-141.5 58.5t-141.5 -58.5t-58.5 -141.5t58.5 -141.5t141.5 -58.5z" />
    <glyph glyph-name="plusminus" unicode="&#xb1;" horiz-adv-x="1300" 
d="M0 600v400h1200v-400h-1200zM800 200h-400v1200h400v-1200zM0 0v400h1200v-400h-1200z" />
    <glyph glyph-name="uni00B2" unicode="&#xb2;" horiz-adv-x="700" 
d="M0 1200q0 200 300 200t300 -200q0 -100 -200 -300h200v-200h-600v100q300 200 400 351q0 107 -100 107q-100 -4 -100 -58h-200z" />
    <glyph glyph-name="uni00B3" unicode="&#xb3;" horiz-adv-x="700" 
d="M0 1200q0 200 300 200t300 -200q0 -148 -100 -148q100 -4 100 -152q0 -200 -300 -200t-300 200h200q0 -50 100 -50q100 -4 100 50q0 105 -100 100l-100 -4v160l100 -4q100 0 100 48q0 58 -100 58q-100 -4 -100 -58h-200z" />
    <glyph glyph-name="acute" unicode="&#xb4;" horiz-adv-x="500" 
d="M0 1400h400v-600q-400 0 -400 400v200z" />
    <glyph glyph-name="mu" unicode="&#xb5;" 
d="M0 1400v-1600h400v300q0 -100 300 -100t300 100v-100h400v1400h-400v-900q0 -100 -300 -100t-300 100v900h-400z" />
    <glyph glyph-name="paragraph" unicode="&#xb6;" 
d="M1400 1400v-1400h-400v1000h-100v-1000h-400v400q-500 0 -500 500t500 500h900z" />
    <glyph glyph-name="periodcentered" unicode="&#xb7;" horiz-adv-x="508" 
 />
    <glyph glyph-name="periodcentered" unicode="&#x2219;" horiz-adv-x="508" 
 />
    <glyph glyph-name="cedilla" unicode="&#xb8;" horiz-adv-x="0" 
d="M600 0h200l-100 -100q200 0 200 -100t-100 -100h-200l100 60q100 0 100 40q0 41 -300 0z" />
    <glyph glyph-name="uni00B9" unicode="&#xb9;" horiz-adv-x="700" 
d="M0 1300q200 0 200 100h200v-500h200v-200h-600v200h200v260q0 -60 -200 -60v200z" />
    <glyph glyph-name="ordmasculine" unicode="&#xba;" horiz-adv-x="700" 
d="M300 1200q-41 0 -70.5 -44t-29.5 -106t29.5 -106t70.5 -44t70.5 44t29.5 106t-29.5 106t-70.5 44zM512 1297.5q88 -102.5 88 -247.5t-88 -247.5t-212 -102.5t-212 102.5t-88 247.5t88 247.5t212 102.5t212 -102.5z" />
    <glyph glyph-name="guillemotright" unicode="&#xbb;" horiz-adv-x="1353" 
d="M554 0v400l300 300l-300 300v400l700 -700zM0 0v400l300 300l-300 300v400l700 -700z" />
    <glyph glyph-name="onequarter" unicode="&#xbc;" 
d="M0 0l1100 1400h300l-1100 -1400h-300zM0 1300q200 0 200 100h200v-500h200v-200h-600v200h200v260q0 -60 -200 -60v200zM1400 700v-700h-200v200h-200q-200 0 -200 200v300h200v-249q0 -51 52 -51h148v300h200z" />
    <glyph glyph-name="onehalf" unicode="&#xbd;" 
d="M0 0l1100 1400h300l-1100 -1400h-300zM0 1300q200 0 200 100h200v-500h200v-200h-600v200h200v260q0 -60 -200 -60v200zM800 500q0 200 300 200t300 -200q0 -100 -200 -300h200v-200h-600v100q300 200 400 351q0 107 -100 107q-100 -4 -100 -58h-200z" />
    <glyph glyph-name="threequarters" unicode="&#xbe;" 
d="M0 0l1100 1400h300l-1100 -1400h-300zM1400 700v-700h-200v200h-200q-200 0 -200 200v300h200v-249q0 -51 52 -51h148v300h200zM0 1200q0 200 300 200t300 -200q0 -148 -100 -148q100 -4 100 -152q0 -200 -300 -200t-300 200h200q0 -50 100 -50q100 -4 100 50
q0 105 -100 100l-100 -4v160l100 -4q100 0 100 48q0 58 -100 58q-100 -4 -100 -58h-200z" />
    <glyph glyph-name="questiondown" unicode="&#xbf;" 
d="M1400 0h-900q-500 0 -500 500q0 400 400 400h700v-400h-600q-100 0 -100 -53q0 -47 100 -47h900v-400zM1100 1000v400h-400v-400h400z" />
    <glyph glyph-name="uniF001" unicode="&#xf001;" horiz-adv-x="1073" 
 />
    <glyph glyph-name="uniF001" unicode="&#xfb01;" horiz-adv-x="1073" 
 />
    <glyph glyph-name="uniF002" unicode="&#xf002;" horiz-adv-x="1081" 
 />
    <glyph glyph-name="uniF002" unicode="&#xfb02;" horiz-adv-x="1081" 
 />
  </font>
</defs>
</svg>
