<svg xmlns="http://www.w3.org/2000/svg" width="100%" height="100%" viewBox="0 0 830 636">
  <defs>
    <clipPath id="clip-_404">
      <rect width="830" height="636"/>
    </clipPath>
  </defs>
  <g id="_404" data-name="404" clip-path="url(#clip-_404)">
    <rect width="830" height="636" fill="#fff"/>
    <g id="Group_453" data-name="Group 453" transform="translate(-546 -234)">
      <g id="Group_451" data-name="Group 451">
        <g id="Group_448" data-name="Group 448" transform="translate(559.594 280.445)" opacity="0.22">
          <path id="Path_2173" data-name="Path 2173" d="M499.1,134.971c-84.074,26.85-350.366-105.512-329.53,75.289,3.265,26.872,20.578,64.849,5.95,89.938-10.59,18.8-30.073,29.815-48.782,37.118C77.742,357.25,59.505,394.647,71.9,448c33.209,143.811,213.9,109.7,308.78,67.062,67.47-31.726,147.033-37.183,216.952-10.332,54.732,21.845,88.843,67.706,153.091,54.259,56.966-11.428,65.558-65.214,48.932-115.285-9.451-30.975-16.239-44.056,2.492-73.957,15.809-29.686,43.605-52.2,45.753-86.974.451-37.677-16.862-75.654-50.35-89.917-27.43-11.685-52.283-6.96-79.477-14.134-60.317-16.969-99.089-110.688-173.991-78.446-18.645,8.807-29.149,29.084-49.4,35.013" transform="translate(-68.139 -93.582)" fill="#a2dbf1"/>
        </g>
        <g id="Group_449" data-name="Group 449" transform="translate(554.308 248.392)" opacity="0.3">
          <path id="Path_2174" data-name="Path 2174" d="M257.637,113.154c7.625,0,7.625-11.814,0-11.814S250.011,113.154,257.637,113.154Z" transform="translate(148.13 -52.623)" fill="#a2dbf1"/>
          <path id="Path_2175" data-name="Path 2175" d="M97.749,204.038c15.251,0,15.251-23.628,0-23.628S82.519,204.038,97.749,204.038Z" transform="translate(-41.983 38.153)" fill="#a2dbf1"/>
          <path id="Path_2176" data-name="Path 2176" d="M428.435,247.9c15.23,0,15.23-23.628,0-23.628S413.205,247.9,428.435,247.9Z" transform="translate(337.665 88.506)" fill="#a2dbf1"/>
          <path id="Path_2177" data-name="Path 2177" d="M242.109,116.718c15.23,0,15.23-23.628,0-23.628S226.858,116.718,242.109,116.718Z" transform="translate(123.747 -62.094)" fill="#a2dbf1"/>
          <path id="Path_2178" data-name="Path 2178" d="M441.269,234.227c19.8,0,19.8-30.717,0-30.717S421.464,234.227,441.269,234.227Z" transform="translate(348.46 64.672)" fill="#a2dbf1"/>
          <path id="Path_2179" data-name="Path 2179" d="M81.019,225.977c19.8,0,19.8-30.717,0-30.717S61.214,225.977,81.019,225.977Z" transform="translate(-65.121 55.201)" fill="#a2dbf1"/>
          <path id="Path_2180" data-name="Path 2180" d="M386.269,140.037c19.8,0,19.8-30.717,0-30.717S366.464,140.037,386.269,140.037Z" transform="translate(285.318 -43.461)" fill="#a2dbf1"/>
          <path id="Path_2181" data-name="Path 2181" d="M260.991,114.1c22.855,0,22.855-35.443,0-35.443S238.136,114.1,260.991,114.1Z" transform="translate(138.868 -78.66)" fill="#a2dbf1"/>
          <path id="Path_2182" data-name="Path 2182" d="M443.821,240.2c11.428,0,11.428-17.721,0-17.721S432.393,240.2,443.821,240.2Z" transform="translate(358.603 86.451)" fill="#a2dbf1"/>
          <path id="Path_2183" data-name="Path 2183" d="M75.741,196.061c11.428,0,11.428-17.721,0-17.721S64.313,196.061,75.741,196.061Z" transform="translate(-63.967 35.776)" fill="#a2dbf1"/>
          <path id="Path_2184" data-name="Path 2184" d="M400.1,141.061c11.427,0,11.427-17.721,0-17.721S388.673,141.061,400.1,141.061Z" transform="translate(308.41 -27.366)" fill="#a2dbf1"/>
          <path id="Path_2185" data-name="Path 2185" d="M397.192,122.784c7.625,0,7.625-11.814,0-11.814S389.588,122.784,397.192,122.784Z" transform="translate(308.355 -41.567)" fill="#a2dbf1"/>
          <path id="Path_2186" data-name="Path 2186" d="M121.679,119.628c15.23,0,15.23-23.628,0-23.628S106.428,119.628,121.679,119.628Z" transform="translate(-14.511 -58.753)" fill="#a2dbf1"/>
          <path id="Path_2187" data-name="Path 2187" d="M434.629,309.218c15.229,0,15.229-23.628,0-23.628S419.378,309.218,434.629,309.218Z" transform="translate(344.767 158.903)" fill="#a2dbf1"/>
          <path id="Path_2188" data-name="Path 2188" d="M77.109,314.038c15.23,0,15.23-23.628,0-23.628S61.858,314.038,77.109,314.038Z" transform="translate(-65.679 164.437)" fill="#a2dbf1"/>
          <path id="Path_2189" data-name="Path 2189" d="M135.127,105.044c7.626,0,7.626-11.814,0-11.814S127.5,105.044,135.127,105.044Z" transform="translate(7.484 -61.933)" fill="#a2dbf1"/>
          <path id="Path_2190" data-name="Path 2190" d="M432.262,280.9c7.6,0,7.6-11.814,0-11.814S424.637,280.9,432.262,280.9Z" transform="translate(348.616 139.961)" fill="#a2dbf1"/>
          <path id="Path_2191" data-name="Path 2191" d="M90.572,314.594c7.6,0,7.6-11.814,0-11.814S82.947,314.594,90.572,314.594Z" transform="translate(-43.657 178.638)" fill="#a2dbf1"/>
        </g>
        <path id="Path_2192" data-name="Path 2192" d="M222.639,261.908c-7.948,2.814-13.21,3.351-17.292-4.7-3.136-6.186-5.22-12.588-9.172-18.387-8.592-12.587-16.862-13.425-30.588-11.642s-32.221-1.7-34.369-17.442c-1.461-11.213-1.547-21.48-6.444-32.027-2.427-5.177-10.053-.666-7.647,4.468,5.456,11.642,3.072,24.337,7.046,36.194s17.528,15.917,28.848,17.184c8.592,1.01,16.067-1.053,24.466-1.031,9,0,15.165,15.466,18.022,22.254,5.95,14.156,14.392,18.9,29.407,13.6,5.349-1.89,3.05-10.461-2.363-8.592Z" transform="translate(547.162 280.809)" fill="#222221"/>
        <path id="Path_2193" data-name="Path 2193" d="M128.614,171.832a26.507,26.507,0,0,1-9.752,7.583c-4.081,2.148-.494,8.184,3.566,6.122a33.874,33.874,0,0,0,12.308-10.117,3.544,3.544,0,0,0-1.267-4.854,3.63,3.63,0,0,0-4.855,1.267Z" transform="translate(547.619 274.717)" fill="#222221"/>
        <path id="Path_2194" data-name="Path 2194" d="M116.53,168.414c0,7.5,1.117,15.036,1.181,22.447a3.544,3.544,0,0,0,7.089,0c0-7.5-1.16-15.036-1.181-22.447a3.544,3.544,0,1,0-7.089,0Z" transform="translate(547.008 268.705)" fill="#222221"/>
        <path id="Path_2195" data-name="Path 2195" d="M111.445,173.228c4.747,5.929,9.559,11.836,16.089,15.9,3.888,2.427,7.432-3.695,3.566-6.122-5.95-3.716-10.311-9.387-14.628-14.8-2.857-3.566-7.84,1.482-5.026,5.026Z" transform="translate(540.214 271.13)" fill="#222221"/>
        <path id="Path_2196" data-name="Path 2196" d="M108.749,178.058a23.07,23.07,0,0,0,23.628,5.628c4.3-1.332,2.492-8.184-1.89-6.831a15.874,15.874,0,0,1-16.626-3.823c-3.329-3.136-8.356,1.869-5.026,5.026Z" transform="translate(536.918 276.933)" fill="#222221"/>
        <path id="Path_2197" data-name="Path 2197" d="M339.517,273.033c.322-11.578,4.189-15.444,15.38-16.347a211.15,211.15,0,0,0,21.8-1.847c10.976-2.041,10.74-17.184,15.036-24.96,6.444-11.922,23.865-10.74,35.1-14.177,12.373-3.866,17.184-14.349,17.85-26.55.344-5.714-8.592-5.671-8.85,0-1.1,18.151-14.392,18.774-29.02,21.781-12.888,2.664-21.609,9.731-26.1,22.146-1.4,3.888-1.74,11.986-6.444,13.232-7.5,2-16.132,1.074-23.843,1.912-14.478,1.568-19.483,11.062-19.848,24.81-.172,5.714,8.7,5.692,8.85,0Z" transform="translate(792.744 291.68)" fill="#222221"/>
        <path id="Path_2198" data-name="Path 2198" d="M374.06,184.157a27.924,27.924,0,0,0,15.466,15.466,3.544,3.544,0,0,0,4.3-2.47,3.63,3.63,0,0,0-2.47-4.3,20.019,20.019,0,0,1-10.525-10.525,3.63,3.63,0,0,0-4.3-2.47,3.544,3.544,0,0,0-2.47,4.3Z" transform="translate(842.533 285.805)" fill="#222221"/>
        <path id="Path_2199" data-name="Path 2199" d="M378.88,179.414v17.721a3.544,3.544,0,0,0,7.089,0V179.414a3.544,3.544,0,0,0-7.089,0Z" transform="translate(848.196 281.333)" fill="#222221"/>
        <path id="Path_2200" data-name="Path 2200" d="M390.917,179.443a32.716,32.716,0,0,1-10.912,15.036c-3.544,2.9,1.5,7.883,5.026,5.026A39.523,39.523,0,0,0,397.748,181.4c1.5-4.3-5.349-6.186-6.831-1.89Z" transform="translate(848.102 282.722)" fill="#222221"/>
        <path id="Path_2201" data-name="Path 2201" d="M396.8,182.53a27.28,27.28,0,0,1-13.253,10.182c-4.167,1.7-2.341,8.592,1.89,6.831,7.067-2.9,13.339-6.874,17.485-13.447C405.351,182.23,399.229,178.664,396.8,182.53Z" transform="translate(850.852 287.067)" fill="#222221"/>
        <path id="Path_2202" data-name="Path 2202" d="M594.993,325.6c0,6.208-46.419,8.012-51.424,8.012H196.274c-5,0-51.424-1.8-51.424-8.012l42.359-63.474c0-6.186,4.06-11.213,9.065-11.213H543.569c5,0,9.065,5.026,9.065,11.213Z" transform="translate(579.521 367.482)" fill="#b3b3b3"/>
        <path id="Path_2203" data-name="Path 2203" d="M264.081,299.305H174.83L190.446,261.5h80.723Z" transform="translate(613.939 379.639)" fill="#3e3e3d"/>
        <path id="Path_2204" data-name="Path 2204" d="M286.669,299.305h89.251L360.3,261.5H279.58Z" transform="translate(734.196 379.639)" fill="#3e3e3d"/>
        <path id="Path_2205" data-name="Path 2205" d="M338.671,299.305H370.1L344.384,261.5H320.67Z" transform="translate(781.368 379.639)" fill="#3e3e3d"/>
        <path id="Path_2206" data-name="Path 2206" d="M187.006,299.305H155.58L181.313,261.5h23.693Z" transform="translate(591.839 379.639)" fill="#3e3e3d"/>
        <path id="Path_2207" data-name="Path 2207" d="M347.161,299.305H220.04l7.089-37.805H340.072Z" transform="translate(665.842 379.639)" fill="#3e3e3d"/>
        <rect id="Rectangle_670" data-name="Rectangle 670" width="388.537" height="5.778" transform="translate(755.173 648.035)" fill="#b3b3b3"/>
        <rect id="Rectangle_671" data-name="Rectangle 671" width="396.957" height="5.778" transform="translate(750.963 662.212)" fill="#b3b3b3"/>
        <path id="Path_2208" data-name="Path 2208" d="M598.618,301.542c0,5-1.031,9.065-6.036,9.065h-442.8c-5,0-6.036-4.06-6.036-9.065v-7.776c0-5.026,1.031-9.086,6.036-9.086h442.8c5,0,6.036,4.06,6.036,9.086Z" transform="translate(578.258 406.251)" fill="#3e3e3d"/>
        <path id="Path_2209" data-name="Path 2209" d="M376.99,293.346a4.747,4.747,0,0,1-4.726,4.726H215.716a4.747,4.747,0,0,1-4.726-4.726h0a4.726,4.726,0,0,1,4.726-4.726H372.265a4.726,4.726,0,0,1,4.726,4.726Z" transform="translate(655.452 410.774)" fill="#6f6f6f"/>
        <rect id="Rectangle_672" data-name="Rectangle 672" width="374.51" height="250.633" rx="4.23" transform="translate(762.198 379.487)" fill="#3e3e3d"/>
        <path id="Path_2210" data-name="Path 2210" d="M251.651,149.6a3.781,3.781,0,1,0-3.78-3.781,3.781,3.781,0,0,0,3.78,3.781Z" transform="translate(697.791 242.495)" fill="#fff"/>
        <rect id="Rectangle_673" data-name="Rectangle 673" width="322.077" height="215.534" rx="3.63" transform="translate(788.404 398.69)" fill="#fff"/>
        <line id="Line_18" data-name="Line 18" x1="26.722" y2="26.722" transform="translate(875.829 479.736)" fill="none" stroke="#425973" stroke-linecap="round" stroke-linejoin="round" stroke-width="3.3"/>
        <line id="Line_19" data-name="Line 19" x1="26.722" y1="26.722" transform="translate(875.829 479.736)" fill="none" stroke="#425973" stroke-linecap="round" stroke-linejoin="round" stroke-width="3.3"/>
        <line id="Line_20" data-name="Line 20" x1="26.722" y2="26.722" transform="translate(996.333 479.736)" fill="none" stroke="#425973" stroke-linecap="round" stroke-linejoin="round" stroke-width="3.3"/>
        <line id="Line_21" data-name="Line 21" x1="26.722" y1="26.722" transform="translate(996.333 479.736)" fill="none" stroke="#425973" stroke-linecap="round" stroke-linejoin="round" stroke-width="3.3"/>
        <path id="Path_2211" data-name="Path 2211" d="M291.155,213.82V240.2a9.451,9.451,0,0,1-9.451,9.451h-5.112a9.451,9.451,0,0,1-9.451-9.451V213.82" transform="translate(719.914 324.901)" fill="#dd9ab2"/>
        <path id="Path_2212" data-name="Path 2212" d="M279.091,214.46l-4.146,30.717L270.8,214.46Z" transform="translate(724.116 325.636)" fill="#d6819f"/>
        <line id="Line_22" data-name="Line 22" x2="160.201" transform="translate(869.342 538.7)" fill="none" stroke="#425973" stroke-linecap="round" stroke-linejoin="round" stroke-width="2.75"/>
        <path id="Path_2213" data-name="Path 2213" d="M206.235,224.628c15.23,0,15.23-23.628,0-23.628S191.005,224.628,206.235,224.628Z" transform="translate(636.879 310.183)" fill="#e9c2d0"/>
        <path id="Path_2214" data-name="Path 2214" d="M305.235,224.628c15.23,0,15.23-23.628,0-23.628S290.005,224.628,305.235,224.628Z" transform="translate(750.535 310.183)" fill="#e9c2d0"/>
        <path id="Path_2215" data-name="Path 2215" d="M308.48,128.327V206.3c0,7.626,11.814,7.626,11.814,0V128.327c0-7.626-11.814-7.626-11.814,0Z" transform="translate(767.374 220.186)" fill="#db9022"/>
        <path id="Path_2216" data-name="Path 2216" d="M315.811,185.061c11.428,0,11.428-17.721,0-17.721S304.383,185.061,315.811,185.061Z" transform="translate(765.95 271.54)" fill="#db9022"/>
      </g>
      <path id="Path_2217" data-name="Path 2217" d="M22.471-16.605l.3-26.051h-.3q-5.865,7.427-10.588,14.092T4.037-16.605ZM15.272,0V-2.323H22.09V-14.206H1.79v-3.275q7.2-11.083,13.616-19.786T27.231-51.949h6.627v35.344H42.2v-5.789h1.714V-8.646H42.2v-5.561H33.858V-2.323h6.018V0ZM50.235-25.518a35.527,35.527,0,0,1,1.447-10.34,25.509,25.509,0,0,1,4.151-8.284,21.323,21.323,0,0,1,6.76-5.846,16.984,16.984,0,0,1,8.055-1.961,16.632,16.632,0,0,1,8.036,2.019,21.375,21.375,0,0,1,6.741,5.941,26.284,26.284,0,0,1,4.285,8.455,35.152,35.152,0,0,1,1.466,10.321,31.219,31.219,0,0,1-1.5,9.921,27.81,27.81,0,0,1-4.589,8.436,22.35,22.35,0,0,1-6.7,5.846,15.789,15.789,0,0,1-7.731,2.038A16.273,16.273,0,0,1,62.994-.933a20.775,20.775,0,0,1-6.589-5.542,27.431,27.431,0,0,1-4.551-8.684A33.359,33.359,0,0,1,50.235-25.518ZM70.649-49.626a7.068,7.068,0,0,0-3.923.971A5.034,5.034,0,0,0,64.67-45.7a30.169,30.169,0,0,0-.914,6.532q-.267,4.437-.267,16.015v1.866q0,13.673,1.485,16.815t5.675,3.142q4.266,0,5.77-3.237t1.5-17.748v-.99q0-8.265-.114-13.159t-.343-6.417a9.377,9.377,0,0,0-2.19-5.18A6.318,6.318,0,0,0,70.649-49.626ZM116.7-16.605l.3-26.051h-.3q-5.865,7.427-10.588,14.092T98.262-16.605ZM109.5,0V-2.323h6.817V-14.206h-20.3v-3.275q7.2-11.083,13.616-19.786t11.826-14.682h6.627v35.344h8.341v-5.789h1.714V-8.646h-1.714v-5.561h-8.341V-2.323H134.1V0Zm70.5-18.891h10.321v-5.9a4.581,4.581,0,0,0-1.238-3.58,5.825,5.825,0,0,0-3.942-1.1,5.585,5.585,0,0,0-3.866,1.162,4.532,4.532,0,0,0-1.276,3.523Zm19.043,8.607,1.79.609a15.834,15.834,0,0,1-5.694,7.96,16.638,16.638,0,0,1-9.655,2.59q-8.112,0-12.949-4.3a14.589,14.589,0,0,1-4.837-11.464A15.435,15.435,0,0,1,172.7-26.66a17.758,17.758,0,0,1,12.625-4.685q7.008,0,11.064,3.866t4.056,10.569v.381H179.994v7.655q0,4.456,1.39,6.113T186.24-1.1a13.135,13.135,0,0,0,7.884-2.3A14.4,14.4,0,0,0,199.037-10.283ZM205.283,0V-2.323h4.151V-28.069h-4.228v-2.323q3.694-.152,7.37-.381t7.37-.571V-23a15.615,15.615,0,0,1,4.094-6.132,8.126,8.126,0,0,1,5.427-2.209,6.707,6.707,0,0,1,4.837,1.866,6.137,6.137,0,0,1,1.942,4.608,5.479,5.479,0,0,1-1.562,4.018,5.333,5.333,0,0,1-3.961,1.581,4.7,4.7,0,0,1-3.542-1.523,5.168,5.168,0,0,1-1.447-3.694,3.691,3.691,0,0,1,.457-1.714,3.4,3.4,0,0,0,.457-1.181.4.4,0,0,0-.171-.324.692.692,0,0,0-.438-.133q-1.676,0-3.771,3.771a16.081,16.081,0,0,0-2.095,7.922V-2.323h5.637V0Zm34.163,0V-2.323H243.6V-28.069H239.37v-2.323q3.694-.152,7.37-.381t7.37-.571V-23a15.615,15.615,0,0,1,4.094-6.132,8.126,8.126,0,0,1,5.427-2.209,6.707,6.707,0,0,1,4.837,1.866,6.137,6.137,0,0,1,1.942,4.608,5.479,5.479,0,0,1-1.562,4.018,5.333,5.333,0,0,1-3.961,1.581,4.7,4.7,0,0,1-3.542-1.523,5.168,5.168,0,0,1-1.447-3.694,3.691,3.691,0,0,1,.457-1.714,3.4,3.4,0,0,0,.457-1.181.4.4,0,0,0-.171-.324.692.692,0,0,0-.438-.133q-1.676,0-3.771,3.771a16.081,16.081,0,0,0-2.095,7.922V-2.323h5.637V0Zm35.115-15.2a14.869,14.869,0,0,1,5.065-11.635q5.065-4.513,13.1-4.513,8.074,0,13.159,4.494a14.745,14.745,0,0,1,5.084,11.578,14.835,14.835,0,0,1-5.1,11.616q-5.1,4.532-13.14,4.532t-13.1-4.494A14.77,14.77,0,0,1,274.562-15.2ZM292.8-29.479q-3.618,0-4.894,2.3t-1.276,11.9v3.123q0,7.274,1.295,9.2T292.8-1.028q3.58,0,4.837-2.171T298.9-14.13v-4.494q0-6.97-1.295-8.912T292.8-29.479ZM316.266,0V-2.323h4.151V-28.069h-4.228v-2.323q3.694-.152,7.37-.381t7.37-.571V-23a15.615,15.615,0,0,1,4.094-6.132,8.126,8.126,0,0,1,5.427-2.209,6.707,6.707,0,0,1,4.837,1.866,6.137,6.137,0,0,1,1.942,4.608,5.479,5.479,0,0,1-1.562,4.018,5.333,5.333,0,0,1-3.961,1.581,4.7,4.7,0,0,1-3.542-1.523,5.168,5.168,0,0,1-1.447-3.694,3.691,3.691,0,0,1,.457-1.714,3.4,3.4,0,0,0,.457-1.181.4.4,0,0,0-.171-.324.692.692,0,0,0-.438-.133q-1.676,0-3.771,3.771a16.081,16.081,0,0,0-2.095,7.922V-2.323h5.637V0Z" transform="translate(777 835)" fill="#ff7171"/>
    </g>
  </g>
</svg>
