<svg id="Layer_1" data-name="Layer 1" xmlns="http://www.w3.org/2000/svg" viewBox="0 0 15.55 22.45"><defs><style>.cls-1{fill:#00c58f;}</style></defs><title>All Tracks</title><g id="music"><path class="cls-1" d="M15.54,10.17a9.26,9.26,0,0,1-1.25,4.1.56.56,0,0,1,0,.08,5.75,5.75,0,0,1-.64.89.86.86,0,0,1-1.22.08.88.88,0,0,1-.08-1.22,3.12,3.12,0,0,0,.34-.47,6.24,6.24,0,0,0-4-4.7V19c0,1.91-1.94,3.46-4.32,3.46S0,20.9,0,19s1.94-3.45,4.32-3.45a4.93,4.93,0,0,1,2.59.71V.86A.86.86,0,0,1,7.71,0a.87.87,0,0,1,.92.74,3.73,3.73,0,0,0,.8,1.44l.1.14a8.73,8.73,0,0,0,2.3,1.94,8.09,8.09,0,0,1,3.11,3.06A5.72,5.72,0,0,1,15.54,10.17Z"/></g></svg>