<svg xmlns="http://www.w3.org/2000/svg" viewBox="0 0 25.27 22.48"><path d="M12.64 22.48a1.52 1.52 0 0 1-1-.36l-2.87-2.47a54.72 54.72 0 0 1-6.28-5.89A9.41 9.41 0 0 1 0 7.6a7.88 7.88 0 0 1 2-5.4A6.8 6.8 0 0 1 7.06 0a6.35 6.35 0 0 1 4 1.37 8 8 0 0 1 1.61 1.68 8 8 0 0 1 1.6-1.68 6.35 6.35 0 0 1 4-1.37 6.84 6.84 0 0 1 5.06 2.2 7.93 7.93 0 0 1 2 5.4 9.41 9.41 0 0 1-2.51 6.15 53.71 53.71 0 0 1-6.27 5.89l-2.88 2.48a1.52 1.52 0 0 1-1 .36zm-5.58-21a5.35 5.35 0 0 0-4 1.72 6.45 6.45 0 0 0-1.58 4.4 7.9 7.9 0 0 0 2.17 5.21 52.23 52.23 0 0 0 6.09 5.71h0l2.9 2.48 2.9-2.48a52.23 52.23 0 0 0 6.09-5.71 7.92 7.92 0 0 0 2.17-5.21 6.41 6.41 0 0 0-1.61-4.4 5.33 5.33 0 0 0-4-1.72 4.92 4.92 0 0 0-3.06 1.06 7 7 0 0 0-1.71 2 .93.93 0 0 1-1.28.32.89.89 0 0 1-.32-.32 7.39 7.39 0 0 0-1.71-2 5 5 0 0 0-3.04-1.06z" fill="red"/></svg>