<svg id="Layer_1" data-name="Layer 1" xmlns="http://www.w3.org/2000/svg" viewBox="0 0 46.74 46.74"><defs><style>.cls-1{fill:none;}.cls-2{fill:#fff;}</style></defs><title>InstaGram</title><rect class="cls-1" x="-550.76" y="-235" width="2010" height="1222"/><path id="Path_2117" data-name="Path 2117" class="cls-2" d="M6.85,46.74H39.9a6.85,6.85,0,0,0,6.84-6.84v-33A6.85,6.85,0,0,0,39.9,0h-33A6.85,6.85,0,0,0,0,6.85V39.9A6.85,6.85,0,0,0,6.85,46.74ZM2.74,6.85A4.11,4.11,0,0,1,6.85,2.74H39.9A4.11,4.11,0,0,1,44,6.85V39.9A4.12,4.12,0,0,1,39.9,44h-33a4.11,4.11,0,0,1-4.11-4.1Z"/><path id="Path_2118" data-name="Path 2118" class="cls-2" d="M23.37,35.69A12.33,12.33,0,1,0,11.05,23.37h0A12.33,12.33,0,0,0,23.37,35.69Zm0-21.91a9.59,9.59,0,1,1-9.58,9.59h0A9.6,9.6,0,0,1,23.37,13.78Z"/><path id="Path_2119" data-name="Path 2119" class="cls-2" d="M37.07,13.79A4.11,4.11,0,1,0,33,9.68,4.11,4.11,0,0,0,37.07,13.79Zm0-5.48A1.37,1.37,0,1,1,35.7,9.68h0a1.37,1.37,0,0,1,1.37-1.37Z"/></svg>