<svg id="Layer_1" data-name="Layer 1" xmlns="http://www.w3.org/2000/svg" viewBox="0 0 46.82 46.82"><defs><style>.cls-1{fill:none;}.cls-2{fill:#fff;}</style></defs><title>Twitter</title><rect class="cls-1" x="-621.18" y="-235" width="2010" height="1222"/><path id="Path_2120" data-name="Path 2120" class="cls-2" d="M34.45,0H12.36A12.23,12.23,0,0,0,0,12.1V34.45A12.24,12.24,0,0,0,12.1,46.82H34.45a12.25,12.25,0,0,0,12.37-12.1V12.36A12.24,12.24,0,0,0,34.72,0ZM43.8,34.45a9.24,9.24,0,0,1-9.14,9.35H12.36A9.24,9.24,0,0,1,3,34.66V12.36A9.25,9.25,0,0,1,12.17,3H34.45a9.24,9.24,0,0,1,9.35,9.14V34.45Z"/><path id="Path_2121" data-name="Path 2121" class="cls-2" d="M38.13,12a1.52,1.52,0,0,0-1.65-.08,8.53,8.53,0,0,1-2.58.57l-.56.08a7.27,7.27,0,0,0-4.62-1.66,7.14,7.14,0,0,0-7.16,6.66,14.68,14.68,0,0,1-8.87-5.1,1.52,1.52,0,0,0-2.13-.2,1.62,1.62,0,0,0-.42.55c-.1.22-.94,2.3-.94,7.43,0,4.44,3.51,7.7,5.91,9.42a10.3,10.3,0,0,1-5.34.82,1.51,1.51,0,0,0-1,2.78A17.86,17.86,0,0,0,18.29,36,17.32,17.32,0,0,0,35.91,19.07c.31-.45.9-1.33,1.9-2.87a10,10,0,0,0,.9-2.7A1.5,1.5,0,0,0,38.13,12Zm-5,5.75a1.65,1.65,0,0,0-.29.89A14.36,14.36,0,0,1,18.5,32.94h-.22a15.31,15.31,0,0,1-2.7-.24,13.11,13.11,0,0,0,3.33-1.86,1.52,1.52,0,0,0-.24-2.55c-.07,0-6.45-3.39-6.45-8.09a31.3,31.3,0,0,1,.2-3.75,17.74,17.74,0,0,0,10.7,4.27h.09a1.51,1.51,0,0,0,1.53-1.49,1.58,1.58,0,0,0-.12-.61A4.06,4.06,0,0,1,28,13.93a4.9,4.9,0,0,1,.77-.06,4.24,4.24,0,0,1,3,1.29,1.51,1.51,0,0,0,1.38.44l1.15-.17.45-.06c-1.13,1.73-1.54,2.3-1.56,2.33Z"/></svg>