<svg id="Layer_1" data-name="Layer 1" xmlns="http://www.w3.org/2000/svg" viewBox="0 0 48 48"><defs><style>.cls-1{fill:none;}.cls-2{fill:#fff;}</style></defs><title>Facebook</title><rect class="cls-1" x="-479.5" y="-234.5" width="2010" height="1222"/><g id="Path_2116" data-name="Path 2116"><path class="cls-2" d="M46.75,1.31A4.38,4.38,0,0,0,43.66,0H4.42A4.5,4.5,0,0,0,1.31,1.25,4.42,4.42,0,0,0,0,4.42V43.58a4.36,4.36,0,0,0,1.25,3.11A4.42,4.42,0,0,0,4.42,48h39.2a4.35,4.35,0,0,0,3.07-1.25A4.42,4.42,0,0,0,48,43.58V4.42A4.36,4.36,0,0,0,46.75,1.31Zm-17,28.46V45.43H24.5V29.77H18.23V24.5H24.5v-6a8.14,8.14,0,0,1,7.33-8.12h6.55v5.27H32.57a2.83,2.83,0,0,0-2.8,2.85v6H37.6v5.27ZM45.43,43.59a1.82,1.82,0,0,1-1.85,1.84H32.33V32.33h7.84V21.93H32.33V18.49c0-.14.1-.25.29-.26H41V7.83H31.71a10.75,10.75,0,0,0-9.78,10.68v3.41H15.67v10.4h6.26v13.1H4.41a1.79,1.79,0,0,1-1.29-.5,1.85,1.85,0,0,1-.55-1.35V4.41A1.81,1.81,0,0,1,4.42,2.57h39.2a1.82,1.82,0,0,1,1.81,1.85Z"/></g></svg>