<svg id="Layer_1" data-name="Layer 1" xmlns="http://www.w3.org/2000/svg" viewBox="0 0 55.18 41.78"><defs><style>.cls-1{fill:none;}.cls-2{fill:#fff;}</style></defs><title>You Tube</title><rect class="cls-1" x="-692.2" y="-237.62" width="2010" height="1222"/><path id="Path_2122" data-name="Path 2122" class="cls-2" d="M36.08,18.42,23.89,11.75a2.23,2.23,0,0,0-3.31,2V26.94a2.24,2.24,0,0,0,3.3,2l12.19-6.55a2.24,2.24,0,0,0,0-3.94ZM23.81,25.28V15.4l9.11,5Z"/><path id="Path_2123" data-name="Path 2123" class="cls-2" d="M54.77,9.86v0c-.05-.45-.51-4.4-2.43-6.4a9,9,0,0,0-6-2.79l-.28,0H46C38.72.07,27.71,0,27.6,0h0C27.47,0,16.45.07,9.1.6H9l-.26,0A8.77,8.77,0,0,0,2.83,3.52C1,5.51.47,9.37.42,9.81v0c0,.19-.41,4.59-.41,9V23c0,4.42.39,8.82.41,9v0c0,.44.51,4.31,2.42,6.32A9.14,9.14,0,0,0,9,41.09l.55.07.13,0c4.21.4,17.41.6,18,.6h0c.11,0,11.12-.07,18.41-.59h.1l.31,0a8.55,8.55,0,0,0,5.86-2.8c1.83-2,2.36-5.85,2.41-6.29v0c0-.19.41-4.59.41-9V18.86c0-4.42-.39-8.81-.41-9ZM51.94,23c0,4.09-.36,8.3-.39,8.68-.14,1.07-.7,3.51-1.59,4.48a5.29,5.29,0,0,1-3.81,1.77l-.35,0c-7,.51-17.65.59-18.14.59S14.11,38.34,10,38c-.21,0-.43-.06-.67-.09a6.06,6.06,0,0,1-4.13-1.73l0,0c-.88-.91-1.42-3.2-1.56-4.44,0-.29-.39-4.55-.39-8.69V18.86c0-4.08.35-8.29.39-8.68.16-1.25.73-3.55,1.59-4.48A5.55,5.55,0,0,1,9.11,3.86l.26,0c7.16-.51,17.83-.59,18.21-.59s11.06.08,18.15.59l.29,0A5.75,5.75,0,0,1,50,5.65h0c.87.92,1.41,3.24,1.55,4.5,0,.28.39,4.55.39,8.7Z"/></svg>