<svg id="Layer_1" data-name="Layer 1" xmlns="http://www.w3.org/2000/svg" viewBox="0 0 46.29 46.29"><defs><style>.cls-1{fill:none;}.cls-2{fill:#fff;}</style></defs><title>SoundCloud</title><rect class="cls-1" x="-772.21" y="-235" width="2010" height="1222"/><path id="Path_2124" data-name="Path 2124" class="cls-2" d="M33.75,0H12.54A12.87,12.87,0,0,0,0,12.54V33.75A12.87,12.87,0,0,0,12.54,46.29H33.75A12.86,12.86,0,0,0,46.29,33.75V12.54A12.86,12.86,0,0,0,33.75,0ZM43.3,33.75a9.92,9.92,0,0,1-9.55,9.55H12.54A9.92,9.92,0,0,1,3,33.75V12.54A9.92,9.92,0,0,1,12.54,3H33.75a9.92,9.92,0,0,1,9.55,9.55Z"/><path id="Path_2125" data-name="Path 2125" class="cls-2" d="M10.15,21.65a1.5,1.5,0,0,0-1.49,1.5v5.77a1.5,1.5,0,0,0,3,0V23.15A1.5,1.5,0,0,0,10.15,21.65Z"/><path id="Path_2126" data-name="Path 2126" class="cls-2" d="M14.48,17.32A1.5,1.5,0,0,0,13,18.82V30.36a1.5,1.5,0,1,0,3,0V18.82A1.5,1.5,0,0,0,14.48,17.32Z"/><path id="Path_2127" data-name="Path 2127" class="cls-2" d="M18.81,17.32a1.5,1.5,0,0,0-1.49,1.5V30.36a1.5,1.5,0,1,0,3,0V18.82A1.5,1.5,0,0,0,18.81,17.32Z"/><path id="Path_2128" data-name="Path 2128" class="cls-2" d="M35,20.35a8.08,8.08,0,0,0-7.71-6.12,7.79,7.79,0,0,0-2.94.59,1.89,1.89,0,0,0-1.24,1.85V29.33a1.93,1.93,0,0,0,1.7,2H35.23a5.48,5.48,0,0,0-.24-11Zm.24,8H26.08V17.38a5,5,0,0,1,1.2-.16,5.25,5.25,0,0,1,5,5.05,1.48,1.48,0,0,0,1.61,1.36,1.37,1.37,0,0,0,.49-.13,2.06,2.06,0,0,1,.81-.17,2.51,2.51,0,0,1,0,5Z"/></svg>