<svg xmlns="http://www.w3.org/2000/svg" viewBox="0 0 50 48"><style><![CDATA[.E{isolation:isolate}]]></style><path d="M26,1h0A23,23,0,0,1,49,24h0A23,23,0,0,1,26,47h0A23,23,0,0,1,3,24H3A23,23,0,0,1,26,1Z" fill="none" stroke="#00c58f" stroke-width="2"/><path d="M38.5 15.35H18.7l-1.14-2.68a.91.91 0 0 0-.64-.55l-3.68-.86a.94.94 0 0 0-.43 1.82l3.2.75 8.22 19.32a3.1 3.1 0 1 0 5.55.31h3.37A3.08 3.08 0 1 0 36 31.57H25.6l-1.28-3H38.5a.93.93 0 0 0 .94-.93V16.28a.93.93 0 0 0-.94-.93zM36 33.45a1.22 1.22 0 1 1-1.22 1.22h0A1.22 1.22 0 0 1 36 33.45zm-9.07 0a1.22 1.22 0 1 1-1.22 1.22h0A1.22 1.22 0 0 1 27 33.45zM37.57 21h-6.2a.94.94 0 0 0 0 1.87h6.2v3.8h-14l-4-9.48h18z" fill="#121411" stroke="#515c6f" stroke-width=".1"/></svg>