<svg id="Layer_1" data-name="Layer 1" xmlns="http://www.w3.org/2000/svg" viewBox="0 0 19 19"><defs><style>.cls-1{fill:#bcbccb;}</style></defs><title>Inbox</title><path id="Chat_Icon" data-name="Chat Icon" class="cls-1" d="M13.43,16.5a11.57,11.57,0,0,1-1.55.13,8.74,8.74,0,0,1-4.52-1.22c.12,0,.23,0,.36,0,4.94,0,9.05-3.15,9.92-7.29A4.46,4.46,0,0,1,19,11.28a4.43,4.43,0,0,1-1.2,3h0V19ZM1.19,10A5.8,5.8,0,0,1,0,6.53C0,2.92,3.45,0,7.72,0s7.72,2.92,7.72,6.53S12,13.06,7.72,13.06a8.85,8.85,0,0,1-3.33-.64l-3.2,1.83Z"/></svg>