<svg id="Layer_1" data-name="Layer 1" xmlns="http://www.w3.org/2000/svg" viewBox="0 0 19 19"><defs><style>.cls-1{fill:#00c58f;}</style></defs><title>Earning-Analytics</title><path id="Union_8" data-name="Union 8" class="cls-1" d="M15.44,19A1.12,1.12,0,0,1,14.25,18V7.13A1.13,1.13,0,0,1,15.3,5.94h2.52A1.11,1.11,0,0,1,19,7V17.82A1.11,1.11,0,0,1,18,19H15.44ZM8.32,19A1.12,1.12,0,0,1,7.13,18V1.19A1.12,1.12,0,0,1,8.18,0h2.51a1.14,1.14,0,0,1,1.19,1.06V17.82A1.13,1.13,0,0,1,10.83,19H8.32ZM1.19,19A1.12,1.12,0,0,1,0,18V13.07a1.13,1.13,0,0,1,1.06-1.19.28.28,0,0,1,.13,0H3.56a1.11,1.11,0,0,1,1.19,1v4.88A1.12,1.12,0,0,1,3.7,19H1.19Z"/></svg>