<svg id="Layer_1" data-name="Layer 1" xmlns="http://www.w3.org/2000/svg" viewBox="0 0 19 19"><defs><style>.cls-1{fill:#00c58f;}</style></defs><title>Email-Nptification</title><path id="Union_11" data-name="Union 11" class="cls-1" d="M11.88,15.44H5.94l2.17-2.38h7.33a1.19,1.19,0,0,0,1.19-1.18h0V4.75h1.18A1.19,1.19,0,0,1,19,5.94h0v8.31a1.19,1.19,0,0,1-1.19,1.19H15.44V19ZM3.56,10.69H1.19A1.19,1.19,0,0,1,0,9.5V1.19A1.19,1.19,0,0,1,1.19,0H13.06a1.19,1.19,0,0,1,1.19,1.19V9.5a1.19,1.19,0,0,1-1.19,1.19H7.13L3.56,14.25Z"/></svg>