<?xml version="1.0" encoding="utf-8"?>
<!-- Generator: Adobe Illustrator 23.0.2, SVG Export Plug-In . SVG Version: 6.00 Build 0)  -->
<svg version="1.1" id="Layer_1" xmlns="http://www.w3.org/2000/svg" xmlns:xlink="http://www.w3.org/1999/xlink" x="0px" y="0px"
	 viewBox="0 0 26.3 23.5" style="enable-background:new 0 0 26.3 23.5;" xml:space="preserve">
<style type="text/css">
	.st0{fill:#00C58F;}
</style>
<path class="st0" d="M24.1,2.5c-1.4-1.5-3.3-2.3-5.3-2.3c0,0-0.1,0-0.1,0c-1.5,0-3,0.5-4.2,1.5c-0.5,0.4-0.9,0.8-1.3,1.2
	c-0.4-0.5-0.8-0.9-1.3-1.2c-1.2-1-2.7-1.5-4.3-1.5c-2,0-4,0.8-5.4,2.3C0.8,4,0.1,6,0.1,8.1c0.1,2.4,1,4.7,2.6,6.4
	c1.9,2.1,4,4.1,6.3,5.9l2.8,2.4c0.4,0.3,0.8,0.5,1.3,0.5c0,0,0,0,0,0l1.1,0l-0.2-0.2c0.1-0.1,0.2-0.1,0.4-0.2l2.8-2.4
	c2.3-1.8,4.4-3.8,6.3-5.9c1.6-1.7,2.6-4,2.6-6.4C26.2,6,25.5,4,24.1,2.5z"/>
</svg>
