<svg id="Layer_1" data-name="Layer 1" xmlns="http://www.w3.org/2000/svg" viewBox="0 0 15.36 15.35"><defs><style>.cls-1{fill:none;}.cls-2{fill:#fff;}</style></defs><title>Following</title><rect class="cls-1" x="-490.84" y="-196.43" width="2010" height="1222"/><path id="Path_2091" data-name="Path 2091" class="cls-2" d="M7,14.12H1.8a.6.6,0,0,1-.6-.6.57.57,0,0,1,0-.18,4.61,4.61,0,0,1,4.38-3.12A4.51,4.51,0,0,1,8.19,11,.59.59,0,0,0,9,10.94.6.6,0,0,0,9,10.1l-.08,0A5.51,5.51,0,0,0,7.68,9.4a3.05,3.05,0,0,0,1-2,4.49,4.49,0,0,1,5.71-.46A.6.6,0,0,0,15.14,6l-.08,0a5.47,5.47,0,0,0-1.19-.64A3.05,3.05,0,1,0,9.56,5.1a1.89,1.89,0,0,0,.2.2l-.25.1a6.79,6.79,0,0,0-1,.6A3.05,3.05,0,0,0,2.81,8.31,3.13,3.13,0,0,0,3.56,9.4,5.77,5.77,0,0,0,.08,13a1.81,1.81,0,0,0,1.18,2.26,1.89,1.89,0,0,0,.53.08H7a.6.6,0,1,0,0-1.2ZM11.82,1.2a1.87,1.87,0,0,1,1.85,1.86A1.86,1.86,0,1,1,11.82,1.2ZM5.63,5.3A1.86,1.86,0,1,1,3.77,7.15h0A1.85,1.85,0,0,1,5.63,5.3Z"/><path id="Path_2092" data-name="Path 2092" class="cls-2" d="M15.07,9.78a.6.6,0,0,0-.84.13l-3,4.12a.34.34,0,0,1-.48,0h0L8.88,12.23a.59.59,0,0,0-.84.08.6.6,0,0,0,0,.78L10,14.92a1.49,1.49,0,0,0,1.06.43h.1a1.57,1.57,0,0,0,1.1-.57l0,0,3-4.14a.59.59,0,0,0-.14-.83Z"/></svg>