<svg xmlns="http://www.w3.org/2000/svg" viewBox="0 0 24.06 24.07"><path d="M17.85 17.06l.3-.4a7.76 7.76 0 0 0 1.11-2h-5.68a.28.28 0 0 1-.29-.28h0V11a.29.29 0 0 1 .29-.28h10v1.32a11.42 11.42 0 0 1-2.47 7.14l-.33.42z" fill="#1d81ce"/><path d="M18.3 7.64A7.65 7.65 0 0 0 7.64 5.76a8.4 8.4 0 0 0-1.12 1l-.33.35-3-2.55.37-.4a11.55 11.55 0 0 1 16.33-.58 11.32 11.32 0 0 1 1.73 2.05l.14.2a.28.28 0 0 1-.08.39h0l-2.9 1.7a.27.27 0 0 1-.37-.09z" fill="#cd2900"/><path d="M1.93 17.7a11.55 11.55 0 0 1 1-12.8l.33-.42L6.23 7l-.3.4a7.66 7.66 0 0 0-.65 8.28l.23.42-3.32 2.07z" fill="#ffce00"/><path d="M12,23.62a11.62,11.62,0,0,1-9.57-5.08l-.3-.44,3.33-2.05.27.4a7.66,7.66,0,0,0,10.67,1.87,7.37,7.37,0,0,0,1.12-1l.34-.35,3,2.54-.36.4A11.58,11.58,0,0,1,12,23.62Z" fill="#40a459"/><path d="M17.85 17.06l.3-.4a7.76 7.76 0 0 0 1.11-2h-5.68a.28.28 0 0 1-.29-.28h0V11a.29.29 0 0 1 .29-.28h9.77a.26.26 0 0 1 .25.24v1.08a11.42 11.42 0 0 1-2.47 7.14l-.33.42z" fill="#1d81ce"/></svg>