<svg id="Layer_1" data-name="Layer 1" xmlns="http://www.w3.org/2000/svg" viewBox="0 0 23.39 25.09"><defs><style>.cls-1{fill:#bcbccb;}.cls-2{fill:#ffc06a;}</style></defs><title>Notification</title><g id="Notification_Icon" data-name="Notification Icon"><path class="cls-1" d="M17.81,19.15h-.59a5.12,5.12,0,0,1-1.78-3.56V11.91a1.72,1.72,0,0,0,0-.32A7,7,0,0,1,11.11,6.3,5.74,5.74,0,0,0,9.5,6.09H9.39A5.89,5.89,0,0,0,3.56,12v3.56a5.12,5.12,0,0,1-1.78,3.56H1.19a1.19,1.19,0,0,0,0,2.38H17.81a1.19,1.19,0,0,0,0-2.38ZM7.12,22.72a2.38,2.38,0,0,0,4.76,0Z"/></g><circle class="cls-2" cx="18" cy="5.09" r="5"/></svg>