<svg xmlns="http://www.w3.org/2000/svg" xmlns:xlink="http://www.w3.org/1999/xlink" viewBox="0 0 25.9 25.9"><g fill="#00c48e"><path d="M20.23 0H5.67A5.67 5.67 0 0 0 0 5.67h0v14.56a5.66 5.66 0 0 0 5.66 5.67h14.57a5.66 5.66 0 0 0 5.67-5.66h0V5.67A5.67 5.67 0 0 0 20.24 0zm4.05 20.23a4 4 0 0 1-4.05 4.05H5.67a4 4 0 0 1-4-4.05V5.67a4 4 0 0 1 4.05-4h14.5a4 4 0 0 1 4.05 4.05zM8.1 5.67H6.47a.8.8 0 0 0-.8.8V8.1a.8.8 0 0 0 .8.81H8.1a.81.81 0 0 0 .81-.81V6.47a.8.8 0 0 0-.81-.8zm0 5.66H6.47a.8.8 0 0 0-.8.81h0v1.62a.81.81 0 0 0 .8.81H8.1a.81.81 0 0 0 .81-.81h0v-1.62a.81.81 0 0 0-.81-.81zm0 5.67H6.47a.81.81 0 0 0-.8.81v1.62a.8.8 0 0 0 .8.81H8.1a.81.81 0 0 0 .81-.81V17.8a.81.81 0 0 0-.81-.8z"/><use xlink:href="#B"/><use xlink:href="#B" y="6"/><use xlink:href="#B" y="12"/></g><defs ><path id="B" d="M12 6h7a1 1 0 0 1 1 1h0a1 1 0 0 1-1 1h-7a1 1 0 0 1-1-1h0a1 1 0 0 1 1-1z"/></defs></svg>