<?xml version="1.0" encoding="utf-8"?>
<!-- Generator: Adobe Illustrator 23.0.2, SVG Export Plug-In . SVG Version: 6.00 Build 0)  -->
<svg fill="#8E8A89" version="1.1" id="Layer_1" xmlns="http://www.w3.org/2000/svg" xmlns:xlink="http://www.w3.org/1999/xlink" x="0px" y="0px"
	 viewBox="0 0 28 28" style="enable-background:new 0 0 28 28;" xml:space="preserve">
<g id="search_1_" transform="translate(1 1)">
	<g id="Group_39" transform="translate(0 0)">
		<path id="Path_2054" class="st0" d="M25.8,24.3l-7.5-7.5c3.6-4.4,2.9-10.9-1.5-14.4S5.9-0.6,2.3,3.8s-2.9,10.9,1.5,14.4
			c3.8,3,9.2,3,12.9,0l7.5,7.5c0.2,0.2,0.6,0.2,0.8,0l0.8-0.8C26,24.9,26.1,24.5,25.8,24.3C25.8,24.3,25.8,24.3,25.8,24.3z
			 M10.3,18.4c-4.5,0-8.1-3.6-8.1-8.1s3.6-8.1,8.1-8.1s8.1,3.6,8.1,8.1C18.4,14.8,14.8,18.4,10.3,18.4z"/>
	</g>
</g>
</svg>
