<svg id="Layer_1" data-name="Layer 1" xmlns="http://www.w3.org/2000/svg" viewBox="0 0 19.2 19.2"><defs><style>.cls-1{fill:#00c58f;}</style></defs><title>Seeting</title><path id="Path_108" data-name="Path 108" class="cls-1" d="M16,6.24l1.32-2.52L15.6,2,13.08,3.36a4.45,4.45,0,0,0-1.32-.48L10.8,0H8.4l-1,2.76a5.19,5.19,0,0,0-1.2.48L3.72,1.92l-1.8,1.8L3.24,6.24a5.19,5.19,0,0,0-.48,1.2L0,8.4v2.4l2.76,1c.12.48.36.84.48,1.32L1.92,15.6,3.6,17.28,6.12,16a4.45,4.45,0,0,0,1.32.48l1,2.76h2.4l1-2.76c.48-.12.84-.36,1.32-.48l2.52,1.32,1.68-1.68L16,13.08a4.45,4.45,0,0,0,.48-1.32l2.76-1V8.4l-2.76-1A5.19,5.19,0,0,0,16,6.24Zm-6.36,7A3.54,3.54,0,0,1,6,9.73V9.6A3.54,3.54,0,0,1,9.47,6H9.6a3.54,3.54,0,0,1,3.6,3.47V9.6a3.54,3.54,0,0,1-3.47,3.6Z"/></svg>