<svg id="Layer_1" data-name="Layer 1" xmlns="http://www.w3.org/2000/svg" viewBox="0 0 19.2 19.2"><defs><style>.cls-1{fill:#00c58f;}</style></defs><title>Support</title><path id="Path_107" data-name="Path 107" class="cls-1" d="M9.6,0a9.6,9.6,0,1,0,9.6,9.6A9.6,9.6,0,0,0,9.6,0Zm0,12A2.4,2.4,0,1,1,12,9.6h0A2.41,2.41,0,0,1,9.6,12Zm0-9.6a7,7,0,0,1,3.12.72L10.85,5a4.26,4.26,0,0,0-2.5,0L6.48,3.12A7,7,0,0,1,9.6,2.4ZM2.4,9.6a7,7,0,0,1,.72-3.12L5,8.35a4.26,4.26,0,0,0,0,2.5L3.12,12.72A7,7,0,0,1,2.4,9.6Zm7.2,7.2a7,7,0,0,1-3.12-.72l1.87-1.87a4.26,4.26,0,0,0,2.5,0l1.87,1.87A7,7,0,0,1,9.6,16.8Zm6.48-4.08-1.87-1.87a4.26,4.26,0,0,0,0-2.5l1.87-1.87A7.12,7.12,0,0,1,16.08,12.72Z"/></svg>