<svg id="Layer_1" data-name="Layer 1" xmlns="http://www.w3.org/2000/svg" viewBox="0 0 30 15.82"><defs><style>.cls-1{fill:#00c58f;}</style></defs><title>View</title><path id="Path_2222" data-name="Path 2222" class="cls-1" d="M29.78,7.32C29.51,7,23.07,0,15,0S.49,7,.22,7.32a.91.91,0,0,0,0,1.18c.27.3,6.71,7.32,14.78,7.32s14.51-7,14.78-7.32A.89.89,0,0,0,29.78,7.32ZM15,14.06a6.15,6.15,0,1,1,6.15-6.15h0A6.15,6.15,0,0,1,15,14.06Z"/><path id="Path_2223" data-name="Path 2223" class="cls-1" d="M15.88,6.15A2.64,2.64,0,0,1,17,4a4.38,4.38,0,1,0,2.34,4.64,2.62,2.62,0,0,1-3.44-2.5Z"/></svg>